<svg xmlns="http://www.w3.org/2000/svg" viewBox="0 0 141.73 141.73"><defs><style>.a{fill:#1e1e1e;}</style></defs><title>12</title><path class="a" d="M0,0V141.73H141.73V0ZM129.94,96.63c-2.09,0-24,.68-28,4.28a82.32,82.32,0,0,0-6.08,6H45.11a82.34,82.34,0,0,0-6.08-6c-4-3.6-25.9-4.28-28-4.28s0-3.15,0-3.15H41.47l-1.2-2.26a27.56,27.56,0,0,1-5.82-1.65c-2.42-1.1,4.36-2.74,4.36-2.74s.48,0,.48-1.1a9.94,9.94,0,0,1,.46-2.23,12.5,12.5,0,0,1,3.74-.93c-1.26,0-2.72-.1-3.23-.68a.77.77,0,0,0-.2-.16c-.57-.53-2.23-2.44-2.23-7s3.41-7,4.78-7.9a4.9,4.9,0,0,0,4.43,2.41A13.57,13.57,0,0,1,43.21,66a8,8,0,0,1,.94-2.77,19.28,19.28,0,0,1,1-4.39c1.85-6.29,15-7.69,15-7.69s6.3-5.49,7.76-6.59S69.35,44,69.35,44l2.42,2.2,1.94,2.74,7.27.55v1.65a13.78,13.78,0,0,1,3.39.55c10.26,2.9,11.52,8,11.64,9.8a10.28,10.28,0,0,1-1.46,1.72,5.12,5.12,0,0,0,1.56-1A14,14,0,0,1,100.86,66a6.13,6.13,0,0,1,.48,4.94v4.39c0,.58-1.08.7-2.11.68v0l-6.6-.66,4.85,1.1v1.1a17.41,17.41,0,0,1,2.42,4.94c.48,2.2-2.91,4.39-2.91,4.39s1.95,1.9-2.41,6.66h35.37S132,96.63,129.94,96.63Z"/><path class="a" d="M43.5,82.57c1.13,0,2.1-.13,2.1-.13A20.9,20.9,0,0,0,43.5,82.57Z"/></svg>