<svg xmlns="http://www.w3.org/2000/svg" viewBox="0 0 141.73 141.73"><defs><style>.a{fill:#1e1e1e;}</style></defs><title>13</title><path class="a" d="M53.57,48.13,39.91,37.88a.82.82,0,0,0-.62-.16L16.7,41.2a.82.82,0,0,0-.34,1.5L32.61,53.82a.82.82,0,0,0,.64.13l20-4.35A.82.82,0,0,0,53.57,48.13Z"/><path class="a" d="M122.76,66.53,111.09,59a1.25,1.25,0,0,0-1-.16l-19.94,5a1.08,1.08,0,0,0-.41,2l12.48,8.93a1.25,1.25,0,0,0,1.12.16l19.14-6.45A1.08,1.08,0,0,0,122.76,66.53Z"/><path class="a" d="M96.28,51.46l-9-4.87a1.36,1.36,0,0,0-1-.11l-15.68,4.7a1.36,1.36,0,0,0-.3,2.48l8.32,4.85a1.36,1.36,0,0,0,1.06.13L96,54A1.36,1.36,0,0,0,96.28,51.46Z"/><path class="a" d="M66.73,33.94a.55.55,0,0,0-.38-.07l-14.72,2.6a.55.55,0,0,0-.19,1l11.09,6.83a.55.55,0,0,0,.38.07l14.72-2.6a.55.55,0,0,0,.19-1Z"/><path class="a" d="M92.34,76.61l-12.8-8.8a1.3,1.3,0,0,0-1.07-.18L56.6,73.52a1.3,1.3,0,0,0-.45,2.29L69.84,86.27a1.3,1.3,0,0,0,1.23.19l21-7.55A1.3,1.3,0,0,0,92.34,76.61Z"/><path class="a" d="M72.75,60.38l-11-7.14a1.38,1.38,0,0,0-1-.15L36.35,58.83a1,1,0,0,0-.42,1.86l10.91,8.49a1.37,1.37,0,0,0,1.15.15l24.48-7.09A1,1,0,0,0,72.75,60.38Z"/><path class="a" d="M0,0V141.73H141.73V0ZM83.86,125.16c-6.73,3.85-7.69,0-7.69,0L42.89,91.88l-35-35V49.21L9,48.1,63.67,97.28,9.48,46.75,7.91,44.4l3.85-3.85L40.6,35.75l2.88,2.88L60.34,50.3l.45.83L33.87,58.82l28.33-7.23L77.13,61.71l1,1.92L55,70.36,80.07,64,106,81.9,80.88,63.76l19.32-4.93-18.69,3-2.28.73L63.57,51.24l15.48-4-17.3,3.85L61.92,50,44.6,37.52l1.77-1.77,20.19-2.88,15.38,8.65,1,4.81,3.85-1.92,16.34,8.65,1,4.81,6.73-1,12.5,7.69,8.65,8.65v3.36h-3l-.85-.48v1L82.9,100.16l46.71-22.51L131.93,80l3.85,14.42S90.59,121.31,83.86,125.16Z"/></svg>