<svg xmlns="http://www.w3.org/2000/svg" viewBox="0 0 141.73 141.73"><defs><style>.a{fill:#1e1e1e;}</style></defs><title>15</title><rect class="a" x="48.17" y="57.95" width="8.3" height="9.34" transform="translate(-27.38 45.12) rotate(-37.74)"/><path class="a" d="M75.21,32.44l5.2-4Z"/><rect class="a" x="19.33" y="109.62" width="24.9" height="2.07" transform="translate(-61.08 42.59) rotate(-37.74)"/><rect class="a" x="37.5" y="66.2" width="8.3" height="9.34" transform="translate(-34.66 40.32) rotate(-37.74)"/><path class="a" d="M28.44,68.63l-.59.46Z"/><rect class="a" x="91.65" y="24.3" width="8.3" height="9.34" transform="translate(2.31 64.69) rotate(-37.74)"/><rect class="a" x="22.89" y="114.61" width="25.61" height="2.07" transform="translate(-63.31 46.03) rotate(-37.74)"/><path class="a" d="M94.74,17.33l1.82-1.41Z"/><rect class="a" x="80.99" y="32.55" width="8.3" height="9.34" transform="matrix(0.79, -0.61, 0.61, 0.79, -4.97, 59.89)"/><rect class="a" x="105.3" y="37.27" width="8.3" height="18.67" transform="translate(-5.63 76.73) rotate(-37.74)"/><path class="a" d="M0,0V141.73H141.73V0ZM107,77.36,85.68,93.86,85,93l-24.61,19-3.28,2.54L29.26,136.22,7.67,108.32,35.56,86.73l3.17,4.1L42,88.3,27.42,69.43l.29-8.1,3.16-2.45-.33-2.37,2.44.73,7.74-6-.33-2.37,2.44.73L52.73,42l-.57-10.06,10.33,2.5,11-8.54L73.2,23.5l2.44.73,7.74-6L83,15.88l2.44.73,7-5.44,7.09,2.38,33,42.66L106.38,76.53Z"/><rect class="a" x="94.64" y="45.53" width="8.3" height="18.67" transform="translate(-12.91 71.93) rotate(-37.74)"/><rect class="a" x="26.95" y="119.46" width="24.9" height="2.07" transform="translate(-65.51 49.32) rotate(-37.74)"/><rect class="a" x="51.15" y="79.17" width="8.3" height="18.67" transform="translate(-42.6 52.36) rotate(-37.74)"/><rect class="a" x="61.82" y="70.92" width="8.3" height="18.67" transform="translate(-35.32 57.16) rotate(-37.74)"/><rect class="a" x="73.47" y="59.47" width="17.64" height="17.64" transform="translate(-24.58 64.64) rotate(-37.74)"/></svg>