<svg xmlns="http://www.w3.org/2000/svg" viewBox="0 0 141.73 141.73"><defs><style>.a{fill:#1e1e1e;}</style></defs><title>2</title><path class="a" d="M0,0V141.73H141.73V0ZM107.07,97.53c0,3.15-.81,10.89-9.07,16.78-8.46,6-5,15.11-4.92,15.2l-3.2,1.28c0-.12-4.52-11.69,6.12-19.28a17.07,17.07,0,0,0,7.62-13.42C99.87,96.18,97,86.26,97,74.29c0-10.18,2.07-18.89,5-22.43-.93-6.35-3.54-17-10.81-23.78a22.71,22.71,0,0,0-5.48-3.76c-2.36,1.44-6.31,2.39-10.79,2.39-4.76,0-8.92-1.07-11.22-2.67C51.54,29.77,46,45.26,44.06,52.38c2.75,3.95,4.67,12.73,4.67,22.95,0,13.9-3.55,25.17-7.93,25.17s-7.93-11.27-7.93-25.17c0-13.44,3.32-24.41,7.49-25.13a69.09,69.09,0,0,1,5.16-12.9c4.36-8.23,10-14,16.51-17,1.05-2.6,6.42-4.59,12.9-4.59,6.94,0,12.6,2.27,13.06,5.14a27,27,0,0,1,6,4.24c7.89,7.32,10.85,18.31,12,25.31,3.88,1.57,6.87,11.68,6.87,23.92C112.87,85.37,110.41,94.69,107.07,97.53Z"/></svg>