<svg xmlns="http://www.w3.org/2000/svg" viewBox="0 0 141.73 141.73"><defs><style>.a{fill:#1e1e1e;}</style></defs><title>4</title><path class="a" d="M120.65,90.11c0-.38.1-.75.17-1.09a13.71,13.71,0,0,1-2.22.33Z"/><path class="a" d="M0,0V141.73H141.73V0ZM128,89.41a13.09,13.09,0,0,1-4.54-.73,16.29,16.29,0,0,1,.37,3.59c0,3.14-.73,5.68-1.62,5.68-.71,0-1.31-1.59-1.53-3.81L86.92,81.77c-1.71,8.37-6.74,14.8-13.74,16.32C66,99.66,58.55,95.63,53.51,88.37L36.87,101.63a1.53,1.53,0,0,1,.66,1.14c0,1.28-2.3,2.35-5.33,2.58l-4.7,3.75c-.13,2.7-.79,4.76-1.6,4.76s-1.62-2.55-1.62-5.68c0-.47,0-.92,0-1.36v0h0a14.86,14.86,0,0,1,.27-2,13.71,13.71,0,0,1-4.15.59c-3.63,0-6.57-1.18-6.57-2.63s2.94-2.63,6.57-2.63a11.76,11.76,0,0,1,5.26,1.06A11.76,11.76,0,0,1,31,100.15c.55,0,1.08,0,1.6.08l19-15.12A36.22,36.22,0,0,1,47.4,67.27L18,56.49c-.26,1.66-.75,2.8-1.33,2.8-.84,0-1.52-2.38-1.52-5.31a15.5,15.5,0,0,1,.3-3.14,13.84,13.84,0,0,1-4,.56c-3.63,0-6.57-1.18-6.57-2.63s2.94-2.63,6.57-2.63A11.76,11.76,0,0,1,16.7,47.2,11.76,11.76,0,0,1,22,46.15c3.63,0,6.57,1.18,6.57,2.63S25.59,51.41,22,51.41a13.81,13.81,0,0,1-4.05-.56,13.57,13.57,0,0,1,.23,1.66L47.76,63.37c1.39-9.11,6.58-16.25,14-17.87C70.23,43.67,79,49.56,83.85,59.35L112,37c0-.36.11-.69.18-1a14.29,14.29,0,0,1-3.7.46c-3.63,0-6.57-1.18-6.57-2.63s2.94-2.63,6.57-2.63a11.76,11.76,0,0,1,5.26,1.06A11.76,11.76,0,0,1,119,31.15c3.63,0,6.57,1.18,6.57,2.63s-2.94,2.63-6.57,2.63a13.16,13.16,0,0,1-4.5-.72,14.67,14.67,0,0,1,.39,3.52c0,2.93-.68,5.31-1.52,5.31-.57,0-1.06-1.12-1.32-2.75L85.39,63a36.65,36.65,0,0,1,1.34,4.65,35.51,35.51,0,0,1,.72,10.31l23.44,8.6c.31-1.34,3.12-2.39,6.54-2.39a11.76,11.76,0,0,1,5.26,1.06A11.76,11.76,0,0,1,128,84.15c3.63,0,6.57,1.18,6.57,2.63S131.59,89.41,128,89.41Z"/></svg>