<svg xmlns="http://www.w3.org/2000/svg" viewBox="0 0 141.73 141.73"><defs><style>.a{fill:#1e1e1e;}</style></defs><title>5</title><path class="a" d="M41.39,98.92l.73.42c3.46-6.06-.84-11.33-.88-11.39l-.64.54S44.57,93.36,41.39,98.92Z"/><path class="a" d="M98,99.12a5,5,0,0,0,3.36-1.29,5,5,0,1,0,0-7.49A5,5,0,1,0,98,99.12Z"/><circle class="a" cx="36.72" cy="93.25" r="2.52"/><rect class="a" x="21.61" y="66.4" width="18.46" height="13.43" rx="3.19" ry="3.19"/><path class="a" d="M0,0V141.73H141.73V0ZM22,37.87h95.79a12.1,12.1,0,0,1,12.09,11.75H9.88A12.1,12.1,0,0,1,22,37.87ZM129.87,99.61a12.11,12.11,0,0,1-12.11,12.11H22A12.11,12.11,0,0,1,9.87,99.61V60.52h120Z"/></svg>