<svg xmlns="http://www.w3.org/2000/svg" viewBox="0 0 141.73 141.73"><defs><style>.a{fill:#1e1e1e;}</style></defs><title>6</title><path class="a" d="M19.34,66.7l-.94.33c.07.21,1.86,5.18,7.51,10.33,5.19,4.73,14.78,10.48,30.95,11l0-1C26.62,86.39,19.41,66.9,19.34,66.7Z"/><path class="a" d="M99.47,51.77A35.48,35.48,0,0,0,90,49.64s6.79-.77,8.26-4.21c1-2.33-.11-5.79-6.39-6.82s-15.65-.28-15.65-.28l-.13-6.94-6.25.12L70,39l-8.34.16-.13-6.94-5.21.1.12,6.37-18.76.36.08,4.05,11.47-.22.4,20.83L38.18,64l-1,4.65,16.68-.32L54,74.65l8.34-.16-.13-6.94,6.25-.12.15,7.52,7.3-.14-.13-6.94s22.74-1.06,26-5.71C103.79,59.21,104.73,54,99.47,51.77ZM70.07,41.34a79.48,79.48,0,0,1,12.52.34c4.18.5,8.38,2.15,6.34,4.51C86.48,49,70.23,49.44,70.23,49.44ZM80.91,62.55l-10.42.2-.18-9.26,14.59-.28c5.21-.1,9.42,1.56,9.47,4.45C94.46,62.29,80.91,62.55,80.91,62.55Z"/><path class="a" d="M0,0V141.73H141.73V0ZM127.87,83.87c-1.73,6.05-17.68,24.82-47.83,28.33a78.09,78.09,0,0,1-9.55.66c-1.83,0-3.7.06-5.62,0-40-1-53-33-53-33v-10c0-23.75,26-43,58-43s58,19.25,58,43Z"/></svg>