<svg xmlns="http://www.w3.org/2000/svg" viewBox="0 0 141.73 141.73"><defs><style>.a{fill:#1e1e1e;}</style></defs><title>7</title><path class="a" d="M0,0V141.73H141.73V0ZM125.19,82.66c-.33,2.13-2.7,3.53-5.3,3.13a4.68,4.68,0,0,1-4.11-3.61l-8.4-1.29a38.49,38.49,0,0,1-3.67,9.86l9.09,4.41a4.9,4.9,0,0,1,4.92-.18c2.37,1.15,3.52,3.65,2.58,5.58s-3.62,2.57-6,1.42a4.68,4.68,0,0,1-2.86-4.66l-9-4.39a33.86,33.86,0,0,1-6.15,7.2l5,3.52a4.9,4.9,0,0,1,4.88.61c2.15,1.51,2.9,4.16,1.66,5.92s-4,2-6.14.45a4.68,4.68,0,0,1-2.09-5.06l-5.38-3.78a34.26,34.26,0,0,1-5.58,3.4l6,15.65a4.9,4.9,0,0,1,3.71,3.23c.94,2.45.08,5.07-1.93,5.84s-4.4-.59-5.35-3a4.68,4.68,0,0,1,1.09-5.36l-5.88-15.28a39.15,39.15,0,0,1-7.56,2.16l1.84,8.76a4.9,4.9,0,0,1,3.15,3.78c.54,2.57-.73,5-2.83,5.46s-4.25-1.28-4.79-3.86a4.68,4.68,0,0,1,1.93-5.12l-1.82-8.64a47.92,47.92,0,0,1-5.86.36q-1.92,0-3.8-.16l-.46,11.75a4.9,4.9,0,0,1,2.14,4.43c-.1,2.63-1.93,4.69-4.08,4.61s-3.81-2.28-3.71-4.91a4.68,4.68,0,0,1,3.12-4.49L64,108.68A41.44,41.44,0,0,1,57,107.06l-4.69,13.33a4.9,4.9,0,0,1,.74,4.87c-.87,2.48-3.23,3.91-5.26,3.2s-3-3.3-2.09-5.78A4.68,4.68,0,0,1,50,119.3l4.61-13.1a35.83,35.83,0,0,1-8.31-4.65l-3.33,6.12a4.9,4.9,0,0,1,0,4.92c-1.26,2.31-3.81,3.35-5.7,2.32s-2.4-3.73-1.15-6a4.68,4.68,0,0,1,4.79-2.65l3.43-6.31a33.45,33.45,0,0,1-5.62-6.38l-13.81,8.53a4.9,4.9,0,0,1-2.48,4.25c-2.24,1.38-5,1-6.1-.81s-.23-4.43,2-5.82a4.68,4.68,0,0,1,5.47.08l13.58-8.39a36.79,36.79,0,0,1-3.79-9.58l-11.34,3.6a4.9,4.9,0,0,1-3.44,3.52c-2.51.8-5.07-.22-5.72-2.27s.85-4.36,3.36-5.15a4.68,4.68,0,0,1,5.29,1.41L33,79.28A46.61,46.61,0,0,1,32.28,71c0-.14,0-.27,0-.41l-5-1.2a4.9,4.9,0,0,1-4.76,1.23c-2.56-.61-4.22-2.81-3.72-4.9s3-3.29,5.54-2.68A4.68,4.68,0,0,1,28.13,67l4.23,1a48.58,48.58,0,0,1,1.23-8.71L25.67,56a4.9,4.9,0,0,1-4.9.46C18.34,55.45,17,53,17.87,51s3.47-2.77,5.89-1.76a4.68,4.68,0,0,1,3.12,4.49l7.37,3.08A35.64,35.64,0,0,1,38,48.49l-8-6a4.9,4.9,0,0,1-4.86-.75c-2.11-1.57-2.77-4.25-1.48-6s4-1.84,6.15-.27a4.68,4.68,0,0,1,1.93,5.12l7.7,5.75a30.12,30.12,0,0,1,7.5-7.2L42.43,33A4.9,4.9,0,0,1,38,30.87c-1.55-2.13-1.4-4.88.34-6.14s4.4-.57,6,1.55a4.68,4.68,0,0,1,.34,5.46l4.46,6.11a36.35,36.35,0,0,1,9.64-3.67l-1.83-3.6a4.9,4.9,0,0,1-4-2.83c-1.19-2.34-.6-5,1.32-6s4.44.14,5.63,2.48a4.68,4.68,0,0,1-.53,5.45l2,4a52.31,52.31,0,0,1,7-.69V21.27A4.9,4.9,0,0,1,66,16.92c0-2.63,1.74-4.76,3.9-4.76s3.9,2.13,3.9,4.76a4.68,4.68,0,0,1-2.94,4.61V32.95a38.06,38.06,0,0,1,10.9,1.73l1.27-4.11a4.9,4.9,0,0,1-.93-4.83c.78-2.51,3.07-4,5.13-3.4s3.09,3.19,2.32,5.7a4.68,4.68,0,0,1-4.17,3.54l-1.22,4a38,38,0,0,1,7.23,3.75l3.83-7.75a4.9,4.9,0,0,1-.14-4.92c1.16-2.36,3.67-3.5,5.6-2.54s2.55,3.64,1.38,6A4.68,4.68,0,0,1,97.4,32.9l-3.89,7.88a38.31,38.31,0,0,1,6.56,6.41l8.75-5.39a4.9,4.9,0,0,1,2.49-4.25c2.24-1.38,5-1,6.1.82s.23,4.44-2,5.82a4.68,4.68,0,0,1-5.47-.08l-8.32,5.13A38,38,0,0,1,105.79,57l7-1.82a4.9,4.9,0,0,1,3.63-3.32c2.55-.66,5,.5,5.59,2.58s-1.09,4.31-3.63,5a4.68,4.68,0,0,1-5.2-1.69l-6.53,1.69a37.88,37.88,0,0,1,1.56,7.32l7.06-.66a4.9,4.9,0,0,1,4.11-2.7c2.62-.25,4.9,1.29,5.1,3.43s-1.76,4.08-4.38,4.32a4.68,4.68,0,0,1-4.87-2.5l-6.83.64c0,.59,0,1.18,0,1.77a45.41,45.41,0,0,1-.59,7.35l8.56,1.32a4.9,4.9,0,0,1,4.65-1.62C123.68,78.48,125.52,80.53,125.19,82.66Z"/></svg>