<svg xmlns="http://www.w3.org/2000/svg" viewBox="0 0 141.73 141.73"><defs><style>.a{fill:#1e1e1e;}</style></defs><title>8</title><path class="a" d="M56.28,88.68V64.58a3.86,3.86,0,0,0-3.86-3.86H34.85A3.86,3.86,0,0,0,31,64.58v24.1a3.86,3.86,0,0,0,3.86,3.86H36.7V68.88h13V92.53h2.67A3.86,3.86,0,0,0,56.28,88.68Z"/><path class="a" d="M105.44,60.72H87.86A3.86,3.86,0,0,0,84,64.58v24.1a3.86,3.86,0,0,0,3.86,3.86h2.67V68.88h13V92.53h1.85a3.86,3.86,0,0,0,3.86-3.86V64.58A3.86,3.86,0,0,0,105.44,60.72Z"/><rect class="a" x="53.83" y="104.77" width="28.55" height="8.16"/><path class="a" d="M0,0V141.73H141.73V0ZM126.42,86a1.12,1.12,0,0,1-.82-.47,1.12,1.12,0,0,1-.82.47c-.45,0-.86-.4-1.22-1.1-.36.7-.78,1.1-1.22,1.1s-.86-.4-1.22-1.1c-.36.7-.78,1.1-1.22,1.1v21.16a10.65,10.65,0,0,1-10.65,10.65H80c4.44,1.35,7.28,3.4,7.28,5.71,0,4.05-8.76,7.34-19.57,7.34s-19.57-3.29-19.57-7.34c0-2.31,2.84-4.36,7.28-5.71H31.85a10.65,10.65,0,0,1-10.65-10.65V86c-.45,0-.86-.4-1.22-1.1-.36.7-.78,1.1-1.22,1.1s-.86-.4-1.22-1.1c-.36.7-.78,1.1-1.22,1.1-1.35,0-2.45-3.65-2.45-8.16S15,69.7,16.31,69.7c.45,0,.86.4,1.22,1.1.36-.7.78-1.1,1.22-1.1s.86.4,1.22,1.1c.36-.7.78-1.1,1.22-1.1V60A10.65,10.65,0,0,1,31.85,49.31H68.51V22.85a6.11,6.11,0,1,1,3.26.23V49.31h37.47A10.65,10.65,0,0,1,119.89,60V69.7c.45,0,.86.4,1.22,1.1.36-.7.78-1.1,1.22-1.1s.86.4,1.22,1.1c.36-.7.78-1.1,1.22-1.1a1.12,1.12,0,0,1,.82.47,1.12,1.12,0,0,1,.82-.47c1.35,0,2.45,3.65,2.45,8.16S127.77,86,126.42,86Z"/></svg>