<svg xmlns="http://www.w3.org/2000/svg" viewBox="0 0 1934 1327"><defs><style>.a{fill:#757575;opacity:0.94;}.b{fill:#d3d3d3;}.c{fill:#e56a17;}.d{fill:#ddf2ee;}.e{fill:#db5142;}.f{fill:#b25414;}.g{fill:#f98d43;}.h{fill:#d15f11;}.i{fill:#3cc;}.j{fill:#f7f5e7;}.k{fill:#404349;}</style></defs><title>bg</title><rect class="a" y="187" width="1925" height="1082"/><rect class="b" x="123" y="734" width="17" height="422"/><rect class="b" x="126" y="405" width="14" height="42"/><rect class="b" x="126" y="1136" width="560" height="21"/><rect class="b" x="126" y="403" width="560" height="21"/><rect class="b" x="539" y="403" width="531" height="19.91"/><rect class="b" x="1469" y="1132" width="348" height="25"/><rect class="b" x="1799" y="996" width="19" height="161"/><rect class="b" x="1798" y="396" width="19" height="161"/><rect class="b" x="1644" y="396" width="175" height="25"/><rect class="b" x="1256" y="401" width="175" height="25"/><rect class="b" x="1414" width="17" height="422"/><rect class="b" x="1800" width="17" height="422"/><rect class="b" x="538" width="17" height="422"/><rect class="c" x="1576" y="730" width="216" height="95"/><rect class="c" x="1576" y="833" width="216" height="95"/><rect class="c" x="1576" y="1012" width="216" height="95"/><circle class="d" cx="402.5" cy="846.5" r="103.5"/><rect class="d" x="559" y="1041" width="229" height="90"/><rect class="e" x="364" y="654" width="83" height="72" rx="27.43" ry="27.43"/><rect class="e" x="242" y="507" width="83" height="72" rx="27.43" ry="27.43" transform="translate(-300.92 547.51) rotate(-45)"/><rect class="e" x="208" y="617" width="83" height="72" rx="27.43" ry="27.43" transform="translate(-420.91 1039.02) rotate(-85.54)"/><rect class="e" x="244" y="734" width="83" height="72" rx="29.23" ry="29.23" transform="translate(-140.26 1660.24) rotate(-128.43)"/><rect class="e" x="479" y="512" width="83" height="72" rx="29.23" ry="29.23" transform="translate(414.71 1484.35) rotate(-128.43)"/><rect class="e" x="352" y="782" width="83" height="72" rx="29.23" ry="29.23" transform="translate(787 1824) rotate(180)"/><rect class="e" x="461" y="750" width="83" height="72" rx="29.23" ry="29.23" transform="translate(1413.61 1174.46) rotate(135)"/><rect class="e" x="518.5" y="626.5" width="83" height="72" rx="29.23" ry="29.23" transform="translate(1222.5 290.5) rotate(90)"/><circle class="d" cx="826.5" cy="667.5" r="103.5"/><rect class="e" x="788" y="475" width="83" height="72" rx="27.43" ry="27.43"/><rect class="e" x="666" y="328" width="83" height="72" rx="27.43" ry="27.43" transform="translate(-50.16 794.89) rotate(-45)"/><rect class="e" x="632" y="438" width="83" height="72" rx="27.43" ry="27.43" transform="translate(148.61 1296.64) rotate(-85.54)"/><rect class="e" x="668" y="555" width="83" height="72" rx="29.23" ry="29.23" transform="translate(687.5 1702.14) rotate(-128.43)"/><rect class="e" x="903" y="333" width="83" height="72" rx="29.23" ry="29.23" transform="translate(1242.47 1526.26) rotate(-128.43)"/><rect class="e" x="776" y="603" width="83" height="72" rx="29.23" ry="29.23" transform="translate(1635 1466) rotate(180)"/><rect class="e" x="885" y="571" width="83" height="72" rx="29.23" ry="29.23" transform="translate(2010.85 569.08) rotate(135)"/><rect class="e" x="942.5" y="447.5" width="83" height="72" rx="29.23" ry="29.23" transform="translate(1467.5 -312.5) rotate(90)"/><circle class="d" cx="1271.5" cy="828.5" r="103.5"/><rect class="e" x="1233" y="636" width="83" height="72" rx="27.43" ry="27.43"/><rect class="e" x="1111" y="489" width="83" height="72" rx="27.43" ry="27.43" transform="translate(-33.67 1156.71) rotate(-45)"/><rect class="e" x="1077" y="599" width="83" height="72" rx="27.43" ry="27.43" transform="translate(398.53 1888.79) rotate(-85.54)"/><rect class="e" x="1113" y="716" width="83" height="72" rx="29.23" ry="29.23" transform="translate(1282.95 2311.81) rotate(-128.43)"/><rect class="e" x="1348" y="494" width="83" height="72" rx="29.23" ry="29.23" transform="translate(1837.93 2135.93) rotate(-128.43)"/><rect class="e" x="1221" y="764" width="83" height="72" rx="29.23" ry="29.23" transform="translate(2525 1788) rotate(-180)"/><rect class="e" x="1330" y="732" width="83" height="72" rx="29.23" ry="29.23" transform="translate(2884.35 529.26) rotate(135)"/><rect class="e" x="1387.5" y="608.5" width="83" height="72" rx="29.23" ry="29.23" transform="translate(2073.5 -596.5) rotate(90)"/><rect class="c" x="1576" y="549" width="216" height="95"/><rect class="f" x="1577" y="575" width="17" height="18"/><rect class="f" x="1577" y="608" width="17" height="36"/><polygon class="g" points="1792 556 1576 556 1577 549 1792 549 1792 556"/><polygon class="g" points="1774 627 1595 627 1595.83 590 1774 590 1774 627"/><rect class="f" x="1775" y="575" width="17" height="18"/><rect class="f" x="1775" y="608" width="17" height="36"/><rect class="h" x="1596" y="559" width="89" height="45" rx="5.27" ry="5.27"/><rect class="h" x="1689" y="559" width="82" height="45" rx="5.06" ry="5.06"/><rect class="c" x="1576" y="836" width="216" height="95"/><rect class="f" x="1577" y="862" width="17" height="18"/><rect class="f" x="1577" y="895" width="17" height="36"/><polygon class="g" points="1792 843 1576 843 1577 836 1792 836 1792 843"/><polygon class="g" points="1774 914 1595 914 1595.83 877 1774 877 1774 914"/><rect class="f" x="1775" y="862" width="17" height="18"/><rect class="f" x="1775" y="895" width="17" height="36"/><rect class="h" x="1596" y="846" width="89" height="45" rx="5.27" ry="5.27"/><rect class="h" x="1689" y="846" width="82" height="45" rx="5.06" ry="5.06"/><rect class="c" x="1576" y="729" width="216" height="95"/><rect class="f" x="1577" y="780" width="17" height="18"/><rect class="f" x="1577" y="729" width="17" height="36"/><polygon class="g" points="1792 817 1576 817 1577 824 1792 824 1792 817"/><polygon class="g" points="1774 746 1595 746 1595.83 783 1774 783 1774 746"/><rect class="f" x="1775" y="780" width="17" height="18"/><rect class="f" x="1775" y="729" width="17" height="36"/><rect class="h" x="1596" y="769" width="89" height="45" rx="5.27" ry="5.27"/><rect class="h" x="1689" y="769" width="82" height="45" rx="5.06" ry="5.06"/><rect class="c" x="1576" y="1012" width="216" height="95"/><rect class="f" x="1577" y="1063" width="17" height="18"/><rect class="f" x="1577" y="1012" width="17" height="36"/><polygon class="g" points="1792 1100 1576 1100 1577 1107 1792 1107 1792 1100"/><polygon class="g" points="1774 1029 1595 1029 1595.83 1066 1774 1066 1774 1029"/><rect class="f" x="1775" y="1063" width="17" height="18"/><rect class="f" x="1775" y="1012" width="17" height="36"/><rect class="h" x="1596" y="1052" width="89" height="45" rx="5.27" ry="5.27"/><rect class="h" x="1689" y="1052" width="82" height="45" rx="5.06" ry="5.06"/><rect class="i" x="686" y="1135" width="784" height="26"/><rect class="j" x="16" y="1163" width="77" height="77"/><rect class="j" x="100" y="1163" width="77" height="77"/><rect class="j" x="184" y="1163" width="77" height="77"/><rect class="j" x="268" y="1163" width="77" height="77"/><rect class="j" x="352" y="1163" width="77" height="77"/><rect class="j" x="436" y="1163" width="77" height="77"/><rect class="j" x="520" y="1163" width="77" height="77"/><rect class="j" x="604" y="1163" width="77" height="77"/><rect class="j" x="688" y="1163" width="77" height="77"/><rect class="j" x="772" y="1163" width="77" height="77"/><rect class="j" x="856" y="1163" width="77" height="77"/><rect class="j" x="940" y="1163" width="77" height="77"/><rect class="j" x="1024" y="1163" width="77" height="77"/><rect class="j" x="1108" y="1163" width="77" height="77"/><rect class="j" x="1192" y="1163" width="77" height="77"/><rect class="j" x="1276" y="1163" width="77" height="77"/><rect class="j" x="1360" y="1163" width="77" height="77"/><rect class="j" x="1444" y="1163" width="77" height="77"/><rect class="j" x="1528" y="1163" width="77" height="77"/><rect class="j" x="1612" y="1163" width="77" height="77"/><rect class="j" x="1696" y="1163" width="77" height="77"/><rect class="j" x="1780" y="1163" width="77" height="77"/><rect class="j" x="16" y="1250" width="77" height="77"/><rect class="j" x="100" y="1250" width="77" height="77"/><rect class="j" x="184" y="1250" width="77" height="77"/><rect class="j" x="268" y="1250" width="77" height="77"/><rect class="j" x="352" y="1250" width="77" height="77"/><rect class="j" x="436" y="1250" width="77" height="77"/><rect class="j" x="520" y="1250" width="77" height="77"/><rect class="j" x="604" y="1250" width="77" height="77"/><rect class="j" x="688" y="1250" width="77" height="77"/><rect class="j" x="772" y="1250" width="77" height="77"/><rect class="j" x="856" y="1250" width="77" height="77"/><rect class="j" x="940" y="1250" width="77" height="77"/><rect class="j" x="1024" y="1250" width="77" height="77"/><rect class="j" x="1108" y="1250" width="77" height="77"/><rect class="j" x="1192" y="1250" width="77" height="77"/><rect class="j" x="1276" y="1250" width="77" height="77"/><rect class="j" x="1360" y="1250" width="77" height="77"/><rect class="j" x="1444" y="1250" width="77" height="77"/><rect class="j" x="1528" y="1250" width="77" height="77"/><rect class="j" x="1612" y="1250" width="77" height="77"/><rect class="j" x="1696" y="1250" width="77" height="77"/><rect class="j" x="1780" y="1250" width="77" height="77"/><rect class="k" x="1832" y="399" width="24" height="16" rx="7.24" ry="7.24"/><rect class="k" x="1823" y="417" width="24" height="16" rx="7.24" ry="7.24"/><rect class="k" x="1849" y="422" width="24" height="16" rx="7.24" ry="7.24"/><rect class="k" x="1876" y="418" width="24" height="16" rx="7.24" ry="7.24"/><rect class="k" x="1902" y="421" width="24" height="16" rx="7.24" ry="7.24"/><rect class="k" x="1858" y="402" width="24" height="16" rx="7.24" ry="7.24"/><rect class="k" x="1884" y="398" width="24" height="16" rx="7.24" ry="7.24"/><rect class="k" x="1910" y="402" width="24" height="16" rx="7.24" ry="7.24"/><rect class="k" x="1832" y="360" width="24" height="16" rx="7.24" ry="7.24"/><rect class="k" x="1823" y="378" width="24" height="16" rx="7.24" ry="7.24"/><rect class="k" x="1849" y="383" width="24" height="16" rx="7.24" ry="7.24"/><rect class="k" x="1876" y="379" width="24" height="16" rx="7.24" ry="7.24"/><rect class="k" x="1902" y="382" width="24" height="16" rx="7.24" ry="7.24"/><rect class="k" x="1858" y="363" width="24" height="16" rx="7.24" ry="7.24"/><rect class="k" x="1884" y="359" width="24" height="16" rx="7.24" ry="7.24"/><rect class="k" x="1910" y="363" width="24" height="16" rx="7.24" ry="7.24"/><rect class="k" x="1832" y="321" width="24" height="16" rx="7.24" ry="7.24"/><rect class="k" x="1823" y="339" width="24" height="16" rx="7.24" ry="7.24"/><rect class="k" x="1849" y="344" width="24" height="16" rx="7.24" ry="7.24"/><rect class="k" x="1876" y="340" width="24" height="16" rx="7.24" ry="7.24"/><rect class="k" x="1902" y="343" width="24" height="16" rx="7.24" ry="7.24"/><rect class="k" x="1858" y="324" width="24" height="16" rx="7.24" ry="7.24"/><rect class="k" x="1884" y="320" width="24" height="16" rx="7.24" ry="7.24"/><rect class="k" x="1910" y="324" width="24" height="16" rx="7.24" ry="7.24"/><rect class="k" x="1832" y="282" width="24" height="16" rx="7.24" ry="7.24"/><rect class="k" x="1823" y="300" width="24" height="16" rx="7.24" ry="7.24"/><rect class="k" x="1849" y="305" width="24" height="16" rx="7.24" ry="7.24"/><rect class="k" x="1876" y="301" width="24" height="16" rx="7.24" ry="7.24"/><rect class="k" x="1902" y="304" width="24" height="16" rx="7.24" ry="7.24"/><rect class="k" x="1858" y="285" width="24" height="16" rx="7.24" ry="7.24"/><rect class="k" x="1884" y="281" width="24" height="16" rx="7.24" ry="7.24"/><rect class="k" x="1910" y="285" width="24" height="16" rx="7.24" ry="7.24"/><rect class="k" x="1832" y="243" width="24" height="16" rx="7.24" ry="7.24"/><rect class="k" x="1823" y="261" width="24" height="16" rx="7.24" ry="7.24"/><rect class="k" x="1849" y="266" width="24" height="16" rx="7.24" ry="7.24"/><rect class="k" x="1876" y="262" width="24" height="16" rx="7.24" ry="7.24"/><rect class="k" x="1902" y="265" width="24" height="16" rx="7.24" ry="7.24"/><rect class="k" x="1858" y="246" width="24" height="16" rx="7.24" ry="7.24"/><rect class="k" x="1884" y="242" width="24" height="16" rx="7.24" ry="7.24"/><rect class="k" x="1910" y="246" width="24" height="16" rx="7.24" ry="7.24"/><rect class="k" x="1832" y="204" width="24" height="16" rx="7.24" ry="7.24"/><rect class="k" x="1823" y="222" width="24" height="16" rx="7.24" ry="7.24"/><rect class="k" x="1849" y="227" width="24" height="16" rx="7.24" ry="7.24"/><rect class="k" x="1876" y="223" width="24" height="16" rx="7.24" ry="7.24"/><rect class="k" x="1902" y="226" width="24" height="16" rx="7.24" ry="7.24"/><rect class="k" x="1858" y="207" width="24" height="16" rx="7.24" ry="7.24"/><rect class="k" x="1884" y="203" width="24" height="16" rx="7.24" ry="7.24"/><rect class="k" x="1910" y="207" width="24" height="16" rx="7.24" ry="7.24"/><rect class="k" x="1832" y="165" width="24" height="16" rx="7.24" ry="7.24"/><rect class="k" x="1823" y="183" width="24" height="16" rx="7.24" ry="7.24"/><rect class="k" x="1849" y="188" width="24" height="16" rx="7.24" ry="7.24"/><rect class="k" x="1876" y="184" width="24" height="16" rx="7.24" ry="7.24"/><rect class="k" x="1902" y="187" width="24" height="16" rx="7.24" ry="7.24"/><rect class="k" x="1858" y="168" width="24" height="16" rx="7.24" ry="7.24"/><rect class="k" x="1884" y="164" width="24" height="16" rx="7.24" ry="7.24"/><rect class="k" x="1910" y="168" width="24" height="16" rx="7.24" ry="7.24"/><rect class="k" x="1832" y="441" width="24" height="16" rx="7.24" ry="7.24"/><rect class="k" x="1823" y="459" width="24" height="16" rx="7.24" ry="7.24"/><rect class="k" x="1849" y="464" width="24" height="16" rx="7.24" ry="7.24"/><rect class="k" x="1876" y="460" width="24" height="16" rx="7.24" ry="7.24"/><rect class="k" x="1902" y="463" width="24" height="16" rx="7.24" ry="7.24"/><rect class="k" x="1858" y="444" width="24" height="16" rx="7.24" ry="7.24"/><rect class="k" x="1884" y="440" width="24" height="16" rx="7.24" ry="7.24"/><rect class="k" x="1910" y="444" width="24" height="16" rx="7.24" ry="7.24"/><rect class="k" x="1832" y="483" width="24" height="16" rx="7.24" ry="7.24"/><rect class="k" x="1823" y="501" width="24" height="16" rx="7.24" ry="7.24"/><rect class="k" x="1849" y="506" width="24" height="16" rx="7.24" ry="7.24"/><rect class="k" x="1876" y="502" width="24" height="16" rx="7.24" ry="7.24"/><rect class="k" x="1902" y="505" width="24" height="16" rx="7.24" ry="7.24"/><rect class="k" x="1858" y="486" width="24" height="16" rx="7.24" ry="7.24"/><rect class="k" x="1884" y="482" width="24" height="16" rx="7.24" ry="7.24"/><rect class="k" x="1910" y="486" width="24" height="16" rx="7.24" ry="7.24"/><rect class="k" x="1832" y="525" width="24" height="16" rx="7.24" ry="7.24"/><rect class="k" x="1823" y="543" width="24" height="16" rx="7.24" ry="7.24"/><rect class="k" x="1849" y="548" width="24" height="16" rx="7.24" ry="7.24"/><rect class="k" x="1876" y="544" width="24" height="16" rx="7.24" ry="7.24"/><rect class="k" x="1902" y="547" width="24" height="16" rx="7.24" ry="7.24"/><rect class="k" x="1858" y="528" width="24" height="16" rx="7.24" ry="7.24"/><rect class="k" x="1884" y="524" width="24" height="16" rx="7.24" ry="7.24"/><rect class="k" x="1910" y="528" width="24" height="16" rx="7.24" ry="7.24"/><rect class="k" x="1832" y="567" width="24" height="16" rx="7.24" ry="7.24"/><rect class="k" x="1823" y="585" width="24" height="16" rx="7.24" ry="7.24"/><rect class="k" x="1849" y="590" width="24" height="16" rx="7.24" ry="7.24"/><rect class="k" x="1876" y="586" width="24" height="16" rx="7.24" ry="7.24"/><rect class="k" x="1902" y="589" width="24" height="16" rx="7.24" ry="7.24"/><rect class="k" x="1858" y="570" width="24" height="16" rx="7.24" ry="7.24"/><rect class="k" x="1884" y="566" width="24" height="16" rx="7.24" ry="7.24"/><rect class="k" x="1910" y="570" width="24" height="16" rx="7.24" ry="7.24"/><rect class="k" x="1832" y="609" width="24" height="16" rx="7.24" ry="7.24"/><rect class="k" x="1823" y="627" width="24" height="16" rx="7.24" ry="7.24"/><rect class="k" x="1849" y="632" width="24" height="16" rx="7.24" ry="7.24"/><rect class="k" x="1876" y="628" width="24" height="16" rx="7.24" ry="7.24"/><rect class="k" x="1902" y="631" width="24" height="16" rx="7.24" ry="7.24"/><rect class="k" x="1858" y="612" width="24" height="16" rx="7.24" ry="7.24"/><rect class="k" x="1884" y="608" width="24" height="16" rx="7.24" ry="7.24"/><rect class="k" x="1910" y="612" width="24" height="16" rx="7.24" ry="7.24"/><rect class="k" x="1832" y="651" width="24" height="16" rx="7.24" ry="7.24"/><rect class="k" x="1823" y="669" width="24" height="16" rx="7.24" ry="7.24"/><rect class="k" x="1849" y="674" width="24" height="16" rx="7.24" ry="7.24"/><rect class="k" x="1876" y="670" width="24" height="16" rx="7.24" ry="7.24"/><rect class="k" x="1902" y="673" width="24" height="16" rx="7.24" ry="7.24"/><rect class="k" x="1858" y="654" width="24" height="16" rx="7.24" ry="7.24"/><rect class="k" x="1884" y="650" width="24" height="16" rx="7.24" ry="7.24"/><rect class="k" x="1910" y="654" width="24" height="16" rx="7.24" ry="7.24"/><rect class="k" x="1832" y="693" width="24" height="16" rx="7.24" ry="7.24"/><rect class="k" x="1823" y="711" width="24" height="16" rx="7.24" ry="7.24"/><rect class="k" x="1849" y="716" width="24" height="16" rx="7.24" ry="7.24"/><rect class="k" x="1876" y="712" width="24" height="16" rx="7.24" ry="7.24"/><rect class="k" x="1902" y="715" width="24" height="16" rx="7.24" ry="7.24"/><rect class="k" x="1858" y="696" width="24" height="16" rx="7.24" ry="7.24"/><rect class="k" x="1884" y="692" width="24" height="16" rx="7.24" ry="7.24"/><rect class="k" x="1910" y="696" width="24" height="16" rx="7.24" ry="7.24"/><rect class="k" x="1832" y="735" width="24" height="16" rx="7.24" ry="7.24"/><rect class="k" x="1823" y="753" width="24" height="16" rx="7.24" ry="7.24"/><rect class="k" x="1849" y="758" width="24" height="16" rx="7.24" ry="7.24"/><rect class="k" x="1876" y="754" width="24" height="16" rx="7.24" ry="7.24"/><rect class="k" x="1902" y="757" width="24" height="16" rx="7.24" ry="7.24"/><rect class="k" x="1858" y="738" width="24" height="16" rx="7.24" ry="7.24"/><rect class="k" x="1884" y="734" width="24" height="16" rx="7.24" ry="7.24"/><rect class="k" x="1910" y="738" width="24" height="16" rx="7.24" ry="7.24"/><rect class="k" x="1832" y="777" width="24" height="16" rx="7.24" ry="7.24"/><rect class="k" x="1823" y="795" width="24" height="16" rx="7.24" ry="7.24"/><rect class="k" x="1849" y="800" width="24" height="16" rx="7.24" ry="7.24"/><rect class="k" x="1876" y="796" width="24" height="16" rx="7.24" ry="7.24"/><rect class="k" x="1902" y="799" width="24" height="16" rx="7.24" ry="7.24"/><rect class="k" x="1858" y="780" width="24" height="16" rx="7.24" ry="7.24"/><rect class="k" x="1884" y="776" width="24" height="16" rx="7.24" ry="7.24"/><rect class="k" x="1910" y="780" width="24" height="16" rx="7.24" ry="7.24"/><rect class="k" x="1832" y="819" width="24" height="16" rx="7.24" ry="7.24"/><rect class="k" x="1823" y="837" width="24" height="16" rx="7.24" ry="7.24"/><rect class="k" x="1849" y="842" width="24" height="16" rx="7.24" ry="7.24"/><rect class="k" x="1876" y="838" width="24" height="16" rx="7.24" ry="7.24"/><rect class="k" x="1902" y="841" width="24" height="16" rx="7.24" ry="7.24"/><rect class="k" x="1858" y="822" width="24" height="16" rx="7.24" ry="7.24"/><rect class="k" x="1884" y="818" width="24" height="16" rx="7.24" ry="7.24"/><rect class="k" x="1910" y="822" width="24" height="16" rx="7.24" ry="7.24"/><rect class="k" x="1832" y="861" width="24" height="16" rx="7.24" ry="7.24"/><rect class="k" x="1823" y="879" width="24" height="16" rx="7.24" ry="7.24"/><rect class="k" x="1849" y="884" width="24" height="16" rx="7.24" ry="7.24"/><rect class="k" x="1876" y="880" width="24" height="16" rx="7.24" ry="7.24"/><rect class="k" x="1902" y="883" width="24" height="16" rx="7.24" ry="7.24"/><rect class="k" x="1858" y="864" width="24" height="16" rx="7.24" ry="7.24"/><rect class="k" x="1884" y="860" width="24" height="16" rx="7.24" ry="7.24"/><rect class="k" x="1910" y="864" width="24" height="16" rx="7.24" ry="7.24"/><rect class="k" x="1832" y="903" width="24" height="16" rx="7.24" ry="7.24"/><rect class="k" x="1823" y="921" width="24" height="16" rx="7.24" ry="7.24"/><rect class="k" x="1849" y="926" width="24" height="16" rx="7.24" ry="7.24"/><rect class="k" x="1876" y="922" width="24" height="16" rx="7.24" ry="7.24"/><rect class="k" x="1902" y="925" width="24" height="16" rx="7.24" ry="7.24"/><rect class="k" x="1858" y="906" width="24" height="16" rx="7.24" ry="7.24"/><rect class="k" x="1884" y="902" width="24" height="16" rx="7.24" ry="7.24"/><rect class="k" x="1910" y="906" width="24" height="16" rx="7.24" ry="7.24"/><rect class="k" x="1832" y="945" width="24" height="16" rx="7.24" ry="7.24"/><rect class="k" x="1823" y="963" width="24" height="16" rx="7.24" ry="7.24"/><rect class="k" x="1849" y="968" width="24" height="16" rx="7.24" ry="7.24"/><rect class="k" x="1876" y="964" width="24" height="16" rx="7.24" ry="7.24"/><rect class="k" x="1902" y="967" width="24" height="16" rx="7.24" ry="7.24"/><rect class="k" x="1858" y="948" width="24" height="16" rx="7.24" ry="7.24"/><rect class="k" x="1884" y="944" width="24" height="16" rx="7.24" ry="7.24"/><rect class="k" x="1910" y="948" width="24" height="16" rx="7.24" ry="7.24"/><rect class="k" x="1832" y="987" width="24" height="16" rx="7.24" ry="7.24"/><rect class="k" x="1823" y="1005" width="24" height="16" rx="7.24" ry="7.24"/><rect class="k" x="1849" y="1010" width="24" height="16" rx="7.24" ry="7.24"/><rect class="k" x="1876" y="1006" width="24" height="16" rx="7.24" ry="7.24"/><rect class="k" x="1902" y="1009" width="24" height="16" rx="7.24" ry="7.24"/><rect class="k" x="1858" y="990" width="24" height="16" rx="7.24" ry="7.24"/><rect class="k" x="1884" y="986" width="24" height="16" rx="7.24" ry="7.24"/><rect class="k" x="1910" y="990" width="24" height="16" rx="7.24" ry="7.24"/><rect class="k" x="1832" y="1029" width="24" height="16" rx="7.24" ry="7.24"/><rect class="k" x="1823" y="1047" width="24" height="16" rx="7.24" ry="7.24"/><rect class="k" x="1849" y="1052" width="24" height="16" rx="7.24" ry="7.24"/><rect class="k" x="1876" y="1048" width="24" height="16" rx="7.24" ry="7.24"/><rect class="k" x="1902" y="1051" width="24" height="16" rx="7.24" ry="7.24"/><rect class="k" x="1858" y="1032" width="24" height="16" rx="7.24" ry="7.24"/><rect class="k" x="1884" y="1028" width="24" height="16" rx="7.24" ry="7.24"/><rect class="k" x="1910" y="1032" width="24" height="16" rx="7.24" ry="7.24"/><rect class="k" x="1832" y="1071" width="24" height="16" rx="7.24" ry="7.24"/><rect class="k" x="1823" y="1089" width="24" height="16" rx="7.24" ry="7.24"/><rect class="k" x="1849" y="1094" width="24" height="16" rx="7.24" ry="7.24"/><rect class="k" x="1876" y="1090" width="24" height="16" rx="7.24" ry="7.24"/><rect class="k" x="1902" y="1093" width="24" height="16" rx="7.24" ry="7.24"/><rect class="k" x="1858" y="1074" width="24" height="16" rx="7.24" ry="7.24"/><rect class="k" x="1884" y="1070" width="24" height="16" rx="7.24" ry="7.24"/><rect class="k" x="1910" y="1074" width="24" height="16" rx="7.24" ry="7.24"/><rect class="k" x="1832" y="1113" width="24" height="16" rx="7.24" ry="7.24"/><rect class="k" x="1823" y="1131" width="24" height="16" rx="7.24" ry="7.24"/><rect class="k" x="1849" y="1136" width="24" height="16" rx="7.24" ry="7.24"/><rect class="k" x="1876" y="1132" width="24" height="16" rx="7.24" ry="7.24"/><rect class="k" x="1902" y="1135" width="24" height="16" rx="7.24" ry="7.24"/><rect class="k" x="1858" y="1116" width="24" height="16" rx="7.24" ry="7.24"/><rect class="k" x="1884" y="1112" width="24" height="16" rx="7.24" ry="7.24"/><rect class="k" x="1910" y="1116" width="24" height="16" rx="7.24" ry="7.24"/><rect class="i" x="1554.5" y="541.5" width="514" height="27" transform="translate(2366.5 -1068.5) rotate(90)"/></svg>